<svg id="svg" version="1.1" xmlns="http://www.w3.org/2000/svg" xmlns:xlink="http://www.w3.org/1999/xlink" width="400" height="400" viewBox="0, 0, 400,400"><g id="svgg"><path id="path0" d="M75.166 12.540 C 69.110 15.567,62.806 22.273,61.529 27.047 C 61.025 28.929,60.351 30.469,60.030 30.469 C 59.191 30.469,58.330 25.252,58.916 23.724 C 59.318 22.677,59.200 22.610,58.290 23.366 C 50.473 29.853,59.868 57.794,73.739 69.320 C 77.605 72.531,76.161 73.367,69.213 71.941 C 61.388 70.335,56.825 66.648,55.737 61.054 L 55.182 58.203 54.602 60.938 C 51.789 74.200,65.463 89.451,81.207 90.611 L 87.109 91.046 82.417 93.485 C 56.952 106.721,49.622 125.054,57.888 154.835 C 61.306 167.151,60.258 173.402,53.719 179.704 L 51.172 182.158 53.906 181.610 C 58.752 180.638,65.625 175.371,65.625 172.629 C 65.625 170.712,67.102 172.207,68.295 175.331 C 70.380 180.791,73.654 184.671,80.545 189.854 C 90.042 196.996,90.161 196.993,86.719 189.719 C 84.068 184.114,83.783 182.418,85.611 183.120 C 86.290 183.380,87.680 183.594,88.699 183.594 C 95.716 183.594,92.341 203.834,84.436 209.161 L 81.800 210.938 85.380 210.938 C 90.155 210.938,92.299 210.025,96.394 206.250 L 99.832 203.081 100.740 208.296 C 102.896 220.675,112.343 227.945,121.484 224.260 C 122.374 223.902,123.467 223.966,124.023 224.411 C 124.679 224.935,125.335 224.914,126.017 224.347 C 127.478 223.135,134.933 228.277,138.857 233.203 C 143.670 239.245,151.882 246.737,155.612 248.489 L 158.984 250.074 154.983 249.587 C 151.060 249.109,150.950 249.153,149.307 251.810 C 146.948 255.626,143.710 257.856,134.978 261.675 C 130.797 263.503,126.383 266.016,125.167 267.260 C 120.651 271.878,104.554 304.348,104.385 309.177 C 104.283 312.105,103.699 312.232,98.118 310.538 C 89.845 308.029,88.481 310.004,95.761 313.951 C 101.369 316.992,103.195 322.952,104.224 341.584 L 104.643 349.184 100.843 346.454 C 96.974 343.675,91.360 337.604,85.115 329.446 L 81.641 324.907 78.125 325.410 C 76.191 325.686,71.390 326.743,67.454 327.759 L 60.299 329.606 49.876 323.912 C 38.569 317.734,34.628 315.641,32.813 314.850 C 30.225 313.722,24.581 310.508,24.144 309.914 C 23.887 309.566,22.130 308.816,20.237 308.247 C 17.873 307.537,16.832 306.810,16.910 305.923 C 17.001 304.885,16.803 304.816,15.896 305.568 C 15.120 306.212,15.037 306.668,15.629 307.034 C 16.102 307.326,16.382 308.060,16.252 308.665 C 16.088 309.428,16.785 309.774,18.525 309.792 C 19.906 309.807,22.015 310.519,23.213 311.374 C 24.411 312.229,26.881 313.623,28.702 314.472 C 30.523 315.321,32.017 316.279,32.022 316.602 C 32.027 316.924,32.773 317.188,33.679 317.188 C 35.332 317.187,53.081 326.166,57.366 329.170 L 59.654 330.774 66.351 328.952 C 70.034 327.950,74.365 326.965,75.977 326.764 L 78.906 326.398 78.906 332.949 C 78.906 351.383,84.634 378.087,92.211 394.973 L 94.466 400.000 143.272 400.000 L 192.079 400.000 192.417 398.242 L 192.756 396.484 192.862 398.242 L 192.969 400.000 244.048 400.000 L 295.127 400.000 297.930 392.197 C 302.965 378.177,307.104 357.802,309.832 333.594 C 311.447 319.266,310.761 320.825,314.820 322.257 C 320.114 324.125,320.393 323.594,315.234 321.469 C 307.641 318.341,307.475 318.412,300.470 327.702 C 297.082 332.196,293.432 336.679,292.360 337.663 L 290.410 339.453 290.886 328.516 C 291.527 313.793,292.017 312.288,297.109 309.411 C 299.343 308.148,301.639 306.833,302.210 306.487 C 304.595 305.044,288.523 306.433,283.476 308.106 L 278.281 309.828 276.975 306.868 C 275.871 304.365,275.203 303.832,272.662 303.426 C 270.353 303.057,269.548 302.515,269.190 301.091 C 268.910 299.977,267.511 298.618,265.679 297.684 C 263.600 296.623,262.355 295.318,261.758 293.573 C 261.277 292.166,259.148 288.555,257.027 285.547 C 254.906 282.539,251.462 276.563,249.372 272.266 C 243.973 261.162,242.928 260.136,233.418 256.606 C 223.073 252.767,216.883 249.734,208.291 244.297 C 204.473 241.880,200.983 239.781,200.536 239.632 C 200.089 239.483,199.966 238.968,200.263 238.489 C 200.647 237.866,202.311 238.048,206.062 239.121 C 213.233 241.171,212.850 241.236,225.642 235.804 L 236.995 230.984 239.941 232.679 C 244.004 235.017,244.260 234.902,244.848 230.469 C 245.421 226.148,247.660 224.745,247.652 228.711 C 247.639 234.847,244.469 240.702,240.464 241.985 C 237.941 242.793,237.972 242.811,241.990 242.889 C 246.394 242.975,251.591 239.541,252.794 235.749 C 253.753 232.729,254.572 236.067,253.894 240.234 C 253.039 245.492,251.969 248.075,248.845 252.424 L 246.210 256.092 249.081 255.302 C 255.651 253.496,261.821 249.022,265.939 243.080 C 267.733 240.491,268.563 239.980,271.518 239.647 C 283.256 238.324,292.486 218.503,289.869 200.238 C 289.116 194.980,289.141 194.852,292.187 188.511 C 293.880 184.985,295.496 181.180,295.779 180.055 C 296.061 178.931,297.068 177.716,298.018 177.355 C 300.664 176.349,304.546 172.101,306.695 167.862 C 315.935 149.627,310.148 119.202,291.118 85.967 C 285.788 76.658,285.685 75.838,289.844 75.776 C 293.057 75.728,298.092 73.005,300.286 70.128 C 303.017 66.548,302.889 65.808,299.964 68.269 C 290.992 75.819,282.649 70.249,291.095 62.348 C 296.485 57.306,299.391 50.383,296.791 48.776 C 296.214 48.420,296.095 48.775,296.435 49.845 C 297.166 52.148,295.096 56.523,292.351 58.478 C 289.093 60.798,288.806 60.603,290.503 57.227 C 299.024 40.276,293.813 19.767,279.311 13.179 C 276.265 11.795,272.109 11.130,273.925 12.317 C 278.416 15.251,279.524 24.874,275.997 30.312 C 273.614 33.988,272.737 34.279,270.730 32.061 C 267.791 28.814,260.351 28.155,255.668 30.728 C 254.171 31.551,254.695 31.647,259.258 31.389 C 269.432 30.814,270.573 35.997,261.211 40.263 L 255.456 42.886 247.454 38.140 C 199.780 9.859,140.025 18.133,111.432 56.974 C 108.504 60.951,107.735 61.603,107.354 60.430 C 103.936 49.905,101.442 47.361,89.844 42.569 C 75.247 36.539,70.947 22.188,80.920 12.783 C 84.694 9.224,82.028 9.112,75.166 12.540 M91.909 51.744 C 92.667 52.971,92.865 55.469,92.204 55.469 C 91.150 55.469,88.268 52.217,88.701 51.516 C 89.345 50.473,91.206 50.606,91.909 51.744 M88.143 58.853 C 88.436 60.363,86.683 60.589,85.313 59.219 C 83.918 57.824,84.168 57.277,86.133 57.422 C 87.100 57.493,88.004 58.137,88.143 58.853 M101.040 69.659 C 103.780 73.160,102.616 76.029,98.931 74.858 C 97.585 74.431,96.031 73.942,95.477 73.772 C 94.732 73.543,94.935 72.649,96.258 70.331 C 98.416 66.553,98.590 66.529,101.040 69.659 M150.000 73.078 C 150.000 76.872,145.051 84.375,142.548 84.375 C 141.158 84.375,140.996 80.380,142.286 77.878 C 145.486 71.667,150.000 68.858,150.000 73.078 M173.724 81.068 C 174.563 84.008,170.841 92.578,168.725 92.578 C 166.505 92.578,164.526 86.953,165.547 83.546 C 167.233 77.918,172.379 76.359,173.724 81.068 M149.219 82.031 C 148.719 82.964,148.139 83.556,147.929 83.346 C 147.720 83.136,147.998 82.243,148.549 81.362 C 149.851 79.277,150.399 79.825,149.219 82.031 M184.219 84.531 C 186.134 86.446,185.343 91.386,182.730 93.827 C 177.630 98.591,172.903 94.602,176.167 88.290 C 178.225 84.311,182.161 82.474,184.219 84.531 M261.412 90.314 C 263.100 94.355,262.632 97.285,260.744 94.490 C 260.004 93.394,259.173 91.372,258.898 89.998 C 258.202 86.517,259.915 86.732,261.412 90.314 M212.431 89.949 C 214.637 92.317,215.125 95.471,213.782 98.684 C 210.810 105.798,203.974 103.267,203.651 94.933 C 203.423 89.028,208.753 86.002,212.431 89.949 M237.871 93.711 C 241.207 100.162,235.258 107.051,230.617 102.111 C 227.770 99.081,227.574 95.749,230.104 93.404 C 233.126 90.604,236.329 90.730,237.871 93.711 M191.406 93.203 C 191.406 94.320,189.882 96.094,188.923 96.094 C 188.588 96.094,188.715 95.215,189.205 94.141 C 190.154 92.057,191.406 91.523,191.406 93.203 M224.504 98.172 C 223.952 101.195,223.501 101.953,222.258 101.953 C 220.424 101.953,220.182 95.399,221.937 93.284 C 223.846 90.985,225.308 93.770,224.504 98.172 M243.738 97.805 C 243.745 98.962,243.398 100.125,242.969 100.391 C 242.489 100.687,242.192 99.425,242.199 97.116 C 242.208 94.403,242.422 93.685,242.969 94.531 C 243.385 95.176,243.731 96.649,243.738 97.805 M196.551 119.063 L 197.127 129.922 192.899 129.363 C 190.574 129.055,187.046 128.455,185.058 128.030 L 181.445 127.256 185.198 120.946 C 187.262 117.475,190.295 111.706,191.937 108.124 L 194.922 101.613 195.449 104.908 C 195.739 106.720,196.235 113.090,196.551 119.063 M74.601 110.669 C 73.703 112.040,73.039 112.414,72.487 111.862 C 71.936 111.311,72.262 110.244,73.528 108.467 C 75.773 105.314,76.770 107.359,74.601 110.669 M80.433 114.911 C 79.953 115.807,79.370 116.349,79.137 116.116 C 78.493 115.472,79.525 113.281,80.472 113.281 C 81.049 113.281,81.038 113.781,80.433 114.911 M261.185 123.502 C 262.218 127.119,263.260 131.355,263.499 132.916 L 263.935 135.755 259.506 136.139 C 253.990 136.617,254.346 137.466,256.216 128.293 C 257.094 123.984,257.823 119.107,257.836 117.455 C 257.868 113.435,258.778 115.078,261.185 123.502 M190.534 131.702 L 196.302 133.032 195.867 138.196 C 195.628 141.036,194.844 145.699,194.124 148.558 L 192.817 153.756 190.049 151.878 C 188.527 150.845,186.452 150.000,185.438 150.000 C 184.424 150.000,183.594 149.648,183.594 149.219 C 183.594 148.774,181.283 148.438,178.223 148.438 C 175.269 148.438,171.402 147.926,169.629 147.300 C 167.853 146.673,166.406 146.498,166.406 146.910 C 166.406 147.320,166.846 147.686,167.383 147.723 C 167.920 147.760,167.305 148.113,166.016 148.507 C 164.727 148.901,162.663 149.009,161.429 148.747 L 159.186 148.272 162.325 146.866 C 165.874 145.277,177.026 135.044,177.773 132.691 C 178.333 130.927,180.909 129.697,183.203 130.099 C 184.063 130.249,187.361 130.971,190.534 131.702 M87.578 139.822 C 87.105 144.164,86.711 150.253,86.701 153.351 L 86.684 158.984 85.155 157.031 C 79.730 150.101,79.585 147.479,84.129 138.507 C 88.545 129.785,88.665 129.830,87.578 139.822 M207.377 136.523 C 206.556 143.266,204.197 150.192,201.212 154.629 C 198.329 158.911,198.597 159.196,203.805 157.382 C 208.667 155.689,211.305 154.222,214.443 151.467 C 216.837 149.364,217.188 149.249,217.188 150.560 C 217.188 153.551,212.915 160.518,209.510 163.081 L 206.129 165.625 210.794 165.625 C 223.461 165.625,238.149 156.370,243.408 145.074 C 244.447 142.842,245.301 141.445,245.305 141.970 C 245.319 143.759,240.862 155.124,238.928 158.230 C 235.592 163.589,235.595 163.583,236.793 162.871 C 243.328 158.992,249.713 151.137,252.464 143.593 L 254.116 139.063 259.089 139.063 L 264.063 139.063 264.063 144.185 C 264.063 147.003,263.674 150.852,263.199 152.738 L 262.335 156.168 257.773 156.146 C 244.405 156.082,228.707 173.551,235.779 180.623 C 236.253 181.096,236.400 180.563,236.184 179.161 C 235.873 177.153,235.926 177.095,236.768 178.516 C 240.360 184.576,244.552 183.162,245.662 175.516 C 246.187 171.894,246.298 171.757,248.296 172.258 C 253.190 173.487,253.860 177.798,249.901 182.590 L 247.458 185.547 250.225 182.701 C 255.814 176.953,256.679 169.510,252.332 164.560 C 249.269 161.070,249.328 160.938,253.945 160.938 C 264.298 160.938,268.984 173.856,261.527 181.836 C 260.623 182.803,260.246 183.594,260.689 183.594 C 261.536 183.594,267.969 175.388,267.969 174.308 C 267.969 173.374,271.034 170.773,271.539 171.278 C 271.778 171.517,270.586 174.474,268.889 177.849 C 264.815 185.955,264.092 188.646,263.281 198.719 C 261.916 215.691,255.353 222.361,228.906 233.656 C 213.715 240.144,210.722 240.309,197.096 235.407 C 195.973 235.003,196.050 235.287,197.494 236.874 C 199.081 238.619,199.338 239.907,199.755 248.196 C 200.401 261.040,200.310 261.121,192.188 254.948 C 188.535 252.172,182.166 247.937,178.034 245.536 C 172.053 242.062,170.598 240.875,170.900 239.721 C 171.108 238.923,171.028 234.845,170.723 230.659 L 170.166 223.047 163.551 216.837 C 155.979 209.728,151.769 204.353,151.082 200.917 L 150.605 198.533 156.264 200.501 C 164.309 203.299,175.000 202.943,175.000 199.878 C 175.000 199.485,174.245 199.568,173.323 200.061 C 167.091 203.397,156.552 196.168,150.423 184.355 C 146.943 177.647,142.970 160.048,144.478 158.019 C 146.272 155.605,150.087 158.621,153.419 165.087 L 155.469 169.065 155.469 165.810 C 155.469 162.544,159.046 157.031,161.165 157.031 C 161.630 157.031,161.066 158.017,159.912 159.222 C 155.996 163.310,157.301 170.546,163.017 176.430 C 164.812 178.278,164.764 178.100,162.601 174.863 C 160.216 171.292,160.079 169.784,161.922 167.399 C 163.046 165.945,165.367 167.525,167.102 170.925 C 171.368 179.283,176.765 177.148,177.950 166.633 C 178.407 162.579,179.355 162.448,182.766 165.968 C 185.809 169.107,185.718 171.613,182.368 176.940 L 180.395 180.078 182.765 177.387 C 185.440 174.347,187.842 167.172,187.045 164.598 C 186.754 163.659,185.683 161.232,184.664 159.206 C 183.646 157.179,182.813 155.137,182.813 154.668 C 182.813 152.970,192.420 158.928,194.652 162.009 C 197.302 165.667,197.606 164.047,195.199 159.093 L 193.524 155.644 195.649 153.408 C 198.572 150.331,204.410 140.303,205.914 135.772 C 207.564 130.804,208.044 131.051,207.377 136.523 M306.975 159.241 C 306.009 165.406,303.658 170.506,300.595 173.084 C 297.269 175.882,297.284 175.487,300.852 166.018 C 303.867 158.017,306.080 149.667,306.339 145.313 C 306.403 144.238,306.747 145.820,307.103 148.828 C 307.488 152.084,307.437 156.297,306.975 159.241 M271.133 154.109 C 270.447 158.544,270.255 158.785,267.669 158.457 L 265.665 158.203 268.163 153.338 C 270.936 147.940,272.042 148.227,271.133 154.109 M156.250 151.563 C 156.250 152.504,154.082 153.128,150.913 153.098 L 148.047 153.072 151.124 151.617 C 154.041 150.237,156.250 150.214,156.250 151.563 M115.467 153.551 C 115.664 155.560,115.299 156.138,113.124 157.256 L 110.547 158.582 112.874 158.393 C 115.571 158.173,117.272 163.153,115.112 164.945 C 114.535 165.424,114.063 166.168,114.063 166.598 C 114.063 167.071,114.480 167.032,115.121 166.500 C 115.989 165.780,116.355 166.923,117.157 172.850 C 117.695 176.826,118.497 181.484,118.938 183.203 C 120.939 190.993,120.980 191.406,119.758 191.406 C 117.789 191.406,109.905 182.647,107.429 177.708 C 102.369 167.617,106.132 150.116,113.184 150.934 C 114.833 151.125,115.280 151.638,115.467 153.551 M174.720 161.367 C 177.936 164.584,175.369 170.313,170.712 170.313 C 166.568 170.313,165.471 164.286,169.054 161.204 C 171.731 158.901,172.269 158.917,174.720 161.367 M275.474 162.955 C 275.213 163.634,275.000 164.337,275.000 164.517 C 275.000 164.697,274.605 164.844,274.123 164.844 C 273.478 164.844,273.476 164.566,274.116 163.795 C 274.595 163.219,274.755 162.516,274.472 162.233 C 274.190 161.950,274.406 161.719,274.953 161.719 C 275.540 161.719,275.754 162.226,275.474 162.955 M243.304 170.759 C 246.013 173.468,243.536 178.544,239.774 177.992 C 236.720 177.545,236.020 173.567,238.604 171.345 C 241.095 169.202,241.674 169.130,243.304 170.759 M177.734 180.478 C 176.875 180.852,174.590 180.958,172.656 180.713 C 167.624 180.077,169.113 181.040,174.456 181.878 C 176.919 182.264,178.755 182.401,178.537 182.182 C 178.318 181.963,178.530 181.313,179.009 180.736 C 179.994 179.549,179.907 179.532,177.734 180.478 M251.563 188.281 C 251.563 188.711,252.462 189.063,253.562 189.063 C 254.696 189.063,255.352 188.724,255.078 188.281 C 254.813 187.852,253.913 187.500,253.079 187.500 C 252.245 187.500,251.563 187.852,251.563 188.281 M228.906 194.467 C 228.906 194.862,228.665 195.829,228.369 196.616 C 227.897 197.876,227.990 197.919,229.151 196.975 C 230.592 195.802,230.933 193.750,229.688 193.750 C 229.258 193.750,228.906 194.073,228.906 194.467 M117.747 215.832 C 122.502 221.644,122.483 222.140,117.465 223.107 C 112.344 224.094,109.367 219.978,109.386 211.939 C 109.404 204.302,110.126 202.877,111.882 207.012 C 112.683 208.899,115.323 212.868,117.747 215.832 M275.899 218.983 C 275.654 226.202,274.711 230.650,273.151 231.945 C 272.329 232.627,272.413 231.309,273.534 225.981 C 274.326 222.219,274.979 217.412,274.987 215.299 C 274.994 213.187,275.251 211.710,275.558 212.017 C 275.865 212.324,276.019 215.459,275.899 218.983 M216.406 216.736 C 213.715 217.712,213.745 217.724,218.340 217.514 C 220.908 217.397,223.135 216.924,223.288 216.463 C 223.662 215.344,219.825 215.496,216.406 216.736 M131.289 221.169 C 133.310 225.131,132.952 225.656,130.192 222.775 C 128.838 221.362,128.256 220.099,128.575 219.268 C 129.274 217.445,129.452 217.569,131.289 221.169 M161.605 223.207 C 162.135 224.154,163.183 224.492,165.172 224.358 C 168.532 224.132,169.531 225.902,169.531 232.082 C 169.531 236.821,168.213 237.134,163.749 233.454 C 160.255 230.573,157.039 224.253,157.064 220.313 L 157.081 217.578 158.968 219.722 C 160.006 220.901,161.193 222.469,161.605 223.207 M155.122 228.732 C 154.470 229.384,153.125 228.007,153.150 226.712 C 153.172 225.552,153.314 225.574,154.314 226.896 C 154.940 227.724,155.304 228.550,155.122 228.732 M325.000 226.324 C 317.098 226.789,317.341 226.574,317.781 232.716 L 318.166 238.111 315.138 238.618 C 313.472 238.897,311.055 239.085,309.766 239.036 C 308.477 238.987,305.488 239.188,303.125 239.483 L 298.828 240.018 299.087 245.851 L 299.346 251.684 305.337 251.200 C 308.632 250.934,312.998 250.523,315.039 250.285 C 318.726 249.856,318.750 249.868,318.750 252.161 C 318.750 253.431,318.957 256.013,319.211 257.899 C 319.668 261.300,319.638 261.354,315.550 264.452 C 303.787 273.370,297.698 291.327,302.994 301.487 C 303.867 303.162,304.430 304.743,304.244 305.001 C 304.058 305.258,304.144 305.290,304.434 305.071 C 304.725 304.852,305.691 305.356,306.583 306.189 C 309.198 308.636,320.571 309.287,324.650 307.223 C 326.650 306.210,328.696 305.784,330.469 306.011 C 332.252 306.239,332.850 306.113,332.187 305.649 C 331.402 305.099,331.690 304.382,333.452 302.496 C 334.706 301.153,335.604 299.927,335.447 299.770 C 335.291 299.613,336.128 298.640,337.308 297.606 C 338.488 296.572,339.014 296.231,338.477 296.848 C 335.991 299.701,337.891 299.957,340.893 297.174 C 342.398 295.779,342.844 294.875,342.298 294.329 C 341.752 293.783,342.482 292.080,344.595 288.968 C 347.890 284.116,354.688 270.700,354.688 269.048 C 354.688 265.409,361.032 269.416,363.349 274.519 C 367.985 284.728,362.627 293.446,349.025 297.827 C 341.087 300.384,339.331 302.744,341.371 308.110 C 343.506 313.727,362.792 308.494,372.015 299.796 C 384.887 287.655,379.771 263.706,362.891 257.085 C 357.546 254.989,342.033 253.955,336.185 255.306 L 332.918 256.060 332.390 252.933 C 331.735 249.057,332.502 248.471,338.281 248.433 C 340.645 248.418,348.730 247.892,356.250 247.266 C 363.770 246.639,370.236 246.119,370.620 246.110 C 371.210 246.096,370.688 235.272,370.068 234.651 C 369.859 234.442,344.773 236.292,336.523 237.124 L 332.031 237.578 332.031 235.304 C 332.031 230.850,331.024 225.783,330.167 225.926 C 329.689 226.005,327.363 226.184,325.000 226.324 M43.424 234.208 C 41.845 239.328,25.862 300.837,25.653 302.598 C 25.409 304.651,25.759 304.963,30.646 307.050 C 37.245 309.868,45.313 310.987,45.313 309.085 C 45.313 308.385,45.928 307.807,46.680 307.801 C 47.659 307.792,47.769 307.612,47.067 307.166 C 46.295 306.676,46.278 305.594,46.988 302.060 L 47.888 297.576 50.702 297.811 L 53.516 298.047 53.754 302.662 C 53.917 305.825,53.671 307.480,52.972 307.923 C 52.192 308.418,52.182 308.573,52.930 308.582 C 53.467 308.588,53.906 309.297,53.906 310.156 C 53.906 311.016,54.346 311.731,54.883 311.747 C 55.420 311.762,59.375 312.246,63.672 312.821 C 73.979 314.201,74.194 314.071,74.311 306.418 C 74.362 303.103,74.370 300.149,74.328 299.854 C 74.286 299.558,73.925 285.382,73.525 268.349 C 73.125 251.317,72.652 237.235,72.473 237.056 C 72.294 236.877,66.725 236.029,60.097 235.171 C 53.470 234.314,47.100 233.445,45.942 233.241 C 44.421 232.972,43.723 233.241,43.424 234.208 M165.557 237.247 C 169.934 237.765,170.079 237.933,168.315 240.451 C 167.298 241.903,167.281 242.188,168.210 242.188 C 172.087 242.188,192.739 255.686,199.120 262.391 L 201.756 265.160 201.293 262.854 C 201.038 261.585,201.097 256.504,201.424 251.563 C 202.218 239.555,203.623 243.540,204.401 260.009 C 204.885 270.249,205.027 271.059,205.987 269.028 C 206.915 267.066,206.991 267.962,206.619 276.452 C 206.073 288.920,203.686 299.181,198.282 312.295 C 195.645 318.693,195.784 316.570,198.478 309.289 C 203.516 295.675,205.806 281.543,203.234 279.937 C 202.435 279.438,198.511 275.079,194.514 270.250 C 186.556 260.635,186.616 260.485,195.508 267.756 C 198.838 270.479,201.563 272.377,201.563 271.973 C 201.563 269.739,168.840 243.750,166.028 243.750 C 164.598 243.750,164.457 242.486,165.820 241.893 C 166.357 241.659,165.742 241.672,164.453 241.922 C 163.164 242.172,161.465 243.212,160.677 244.235 C 158.411 247.176,157.047 245.016,155.085 235.375 L 154.574 232.859 158.078 234.818 C 160.006 235.895,163.371 236.988,165.557 237.247 M274.029 234.920 C 272.871 236.078,271.679 236.784,271.383 236.487 C 270.624 235.729,273.422 232.813,274.908 232.813 C 275.808 232.813,275.573 233.376,274.029 234.920 M55.768 270.992 L 55.229 283.594 52.615 283.594 C 51.053 283.594,49.993 283.201,49.983 282.617 C 49.959 281.188,55.746 257.830,56.050 258.133 C 56.191 258.274,56.064 264.061,55.768 270.992 M342.539 267.383 C 341.418 271.067,336.788 280.469,336.096 280.469 C 335.228 280.469,333.235 268.852,333.973 268.101 C 336.451 265.579,343.262 265.009,342.539 267.383 M323.285 284.073 C 325.328 293.472,325.075 294.340,319.616 296.649 C 312.926 299.478,312.184 287.818,318.475 278.739 C 321.265 274.714,321.247 274.694,323.285 284.073 M358.594 287.621 C 355.929 289.175,355.917 289.202,358.139 288.700 C 360.791 288.101,364.287 285.912,362.479 285.982 C 361.846 286.007,360.098 286.744,358.594 287.621 M231.348 296.522 C 229.172 298.353,227.734 302.379,229.688 301.172 C 230.117 300.906,230.469 300.044,230.469 299.256 C 230.469 298.468,231.025 297.610,231.705 297.349 C 234.025 296.459,234.619 296.874,233.226 298.412 C 232.400 299.324,232.008 300.607,232.259 301.569 C 232.604 302.888,232.404 303.101,231.185 302.714 C 229.378 302.140,229.374 302.183,230.905 305.848 C 231.575 307.451,231.962 308.924,231.765 309.120 C 231.316 309.569,228.125 306.198,228.125 305.275 C 228.125 304.901,227.787 304.804,227.374 305.060 C 226.360 305.686,227.760 309.262,229.935 311.598 C 234.284 316.269,239.574 316.915,243.046 313.199 C 244.293 311.864,245.313 311.161,245.313 311.636 C 245.313 313.992,240.034 317.188,236.143 317.188 C 233.712 317.188,227.767 311.360,226.080 307.323 C 224.061 302.491,227.148 295.296,231.641 294.362 C 234.053 293.861,233.995 294.295,231.348 296.522 M239.844 295.320 C 239.844 295.964,237.919 296.875,236.559 296.875 C 236.024 296.875,236.044 296.516,236.616 295.827 C 237.095 295.250,237.279 294.571,237.025 294.317 C 236.772 294.063,237.302 294.049,238.204 294.285 C 239.106 294.521,239.844 294.986,239.844 295.320 M243.723 297.605 C 244.619 299.281,244.845 303.699,243.990 302.844 C 243.693 302.547,243.333 301.540,243.190 300.607 C 243.048 299.673,242.358 298.276,241.657 297.502 C 240.486 296.208,240.485 296.094,241.648 296.094 C 242.344 296.094,243.278 296.774,243.723 297.605 M239.953 299.949 C 241.749 301.422,241.758 301.490,240.303 302.571 C 239.227 303.370,238.988 304.095,239.450 305.160 C 239.803 305.975,240.024 306.941,239.940 307.309 C 239.857 307.676,240.152 308.414,240.595 308.948 C 241.729 310.314,238.933 312.700,236.588 312.367 C 234.496 312.071,233.577 308.799,235.283 307.718 C 236.063 307.223,236.081 307.052,235.352 307.043 C 234.814 307.037,234.375 306.339,234.375 305.493 C 234.375 304.386,234.758 304.076,235.742 304.385 C 237.044 304.795,237.044 304.761,235.742 303.689 C 234.052 302.296,234.016 301.252,235.603 299.665 C 237.184 298.083,237.719 298.118,239.953 299.949 M20.048 302.827 C 18.828 303.488,18.029 304.227,18.271 304.469 C 18.514 304.712,19.226 304.484,19.853 303.963 C 20.480 303.443,21.983 302.720,23.192 302.357 C 24.750 301.889,24.935 301.686,23.828 301.661 C 22.969 301.641,21.268 302.166,20.048 302.827 M86.677 304.193 C 88.157 305.754,89.488 307.031,89.634 307.031 C 90.519 307.031,87.986 303.899,86.165 302.741 C 84.166 301.470,84.209 301.591,86.677 304.193 M376.172 304.688 C 374.817 305.270,374.921 305.374,376.953 305.469 C 378.985 305.564,379.089 305.668,377.734 306.250 C 376.210 306.905,376.213 306.923,377.834 306.976 C 380.079 307.051,381.774 305.056,380.034 304.388 C 378.511 303.804,378.166 303.830,376.172 304.688 M373.438 308.203 C 372.363 308.817,371.030 309.332,370.475 309.347 C 369.920 309.363,369.041 309.739,368.522 310.183 C 368.003 310.627,366.875 311.503,366.016 312.129 C 364.825 312.997,365.337 312.950,368.170 311.932 C 370.214 311.197,372.851 309.807,374.029 308.842 C 376.486 306.830,376.262 306.589,373.438 308.203 M357.422 316.101 C 354.414 317.622,349.316 320.311,346.094 322.076 C 340.781 324.985,339.724 325.281,334.766 325.256 C 329.730 325.230,329.544 325.284,332.422 325.944 C 336.256 326.822,341.141 326.147,343.750 324.378 C 344.824 323.649,349.922 320.867,355.078 318.196 C 360.234 315.524,364.102 313.338,363.672 313.337 C 363.242 313.335,360.430 314.579,357.422 316.101 M329.688 314.882 C 332.397 316.721,333.941 317.257,332.031 315.695 C 330.957 314.816,329.727 314.095,329.297 314.092 C 328.867 314.089,329.043 314.444,329.688 314.882 M337.891 317.188 C 335.764 317.729,335.728 317.787,337.500 317.821 C 338.574 317.842,340.156 317.557,341.016 317.188 C 342.942 316.360,341.144 316.360,337.891 317.188 M56.641 318.939 C 58.804 320.549,61.499 321.299,62.031 320.439 C 62.275 320.045,61.514 319.528,60.339 319.290 C 59.164 319.053,57.500 318.616,56.641 318.318 L 55.078 317.776 56.641 318.939 M192.654 325.294 C 191.585 327.710,190.542 329.688,190.336 329.688 C 190.130 329.688,190.871 327.577,191.984 324.998 C 193.097 322.419,194.140 320.442,194.302 320.604 C 194.465 320.767,193.723 322.877,192.654 325.294 M248.318 329.235 C 249.673 329.936,250.781 330.734,250.781 331.010 C 250.781 331.285,250.574 331.303,250.320 331.049 C 250.066 330.795,248.553 331.049,246.957 331.612 C 240.483 333.896,232.813 335.772,232.813 335.071 C 232.813 334.660,233.604 334.007,234.570 333.618 L 236.328 332.912 234.553 332.862 C 233.536 332.834,231.366 334.098,229.475 335.819 C 225.150 339.755,214.063 342.123,214.063 339.110 C 214.063 337.436,221.641 332.605,229.688 329.150 C 234.739 326.980,244.040 327.023,248.318 329.235 M194.922 333.666 C 198.359 334.143,201.485 334.725,201.867 334.959 C 202.657 335.441,189.322 340.363,185.156 341.126 L 182.422 341.627 183.895 339.970 C 185.477 338.192,185.616 338.369,181.680 337.149 C 181.030 336.947,180.699 337.197,180.903 337.735 C 182.061 340.789,170.460 342.128,165.655 339.494 L 163.732 338.440 166.436 337.314 C 170.237 335.731,178.922 332.958,181.250 332.583 C 183.464 332.227,186.012 332.428,194.922 333.666 M208.476 337.264 C 213.913 339.792,213.459 341.002,206.836 341.641 C 201.443 342.161,201.076 341.748,205.859 340.544 C 209.214 339.699,210.682 338.281,208.203 338.281 C 207.559 338.281,207.031 338.633,207.031 339.063 C 207.031 339.492,206.768 339.802,206.445 339.751 C 204.762 339.486,203.109 339.972,202.031 341.049 C 201.112 341.968,199.433 342.200,194.946 342.025 L 189.066 341.797 196.291 338.893 C 204.671 335.525,204.721 335.518,208.476 337.264 M241.503 340.625 C 243.621 343.510,245.235 353.764,243.722 354.722 C 243.093 355.119,242.930 355.486,243.359 355.537 C 245.596 355.800,237.924 357.303,233.203 357.527 C 224.394 357.945,219.091 359.463,219.374 361.485 C 219.662 363.537,218.025 364.122,213.340 363.641 C 210.838 363.384,209.489 363.643,208.454 364.579 C 207.281 365.641,206.668 365.710,205.038 364.968 C 202.586 363.850,197.459 363.715,199.196 364.813 C 201.396 366.204,199.252 366.602,195.757 365.452 C 193.821 364.815,192.398 364.553,192.594 364.870 C 192.790 365.187,192.086 365.612,191.030 365.813 C 189.974 366.015,189.281 365.904,189.490 365.566 C 189.699 365.227,189.083 364.399,188.120 363.725 C 187.158 363.051,186.713 362.456,187.131 362.402 C 188.983 362.164,180.470 361.056,176.953 361.078 C 173.346 361.100,173.495 361.171,178.906 362.001 C 187.726 363.355,190.875 365.978,182.813 365.255 C 179.590 364.966,176.647 364.431,176.272 364.066 C 175.897 363.702,175.106 363.589,174.514 363.817 C 173.922 364.044,172.822 363.978,172.070 363.671 C 171.318 363.363,168.697 363.060,166.245 362.996 C 162.134 362.889,159.198 361.636,160.353 360.481 C 160.618 360.215,163.342 360.421,166.406 360.938 C 171.908 361.865,175.312 361.430,170.336 360.434 L 167.766 359.920 168.258 354.632 C 168.528 351.724,169.194 347.998,169.737 346.352 L 170.724 343.359 182.823 343.638 C 196.082 343.944,218.113 342.199,230.469 339.865 C 239.477 338.163,239.707 338.179,241.503 340.625 M252.344 355.363 C 252.344 355.734,250.674 356.662,248.633 357.426 C 246.592 358.189,244.570 359.067,244.141 359.378 C 242.822 360.331,236.719 361.017,236.719 360.212 C 236.719 358.794,246.227 355.757,247.739 356.692 C 248.145 356.942,248.426 356.858,248.364 356.503 C 248.303 356.149,248.294 355.596,248.345 355.273 C 248.475 354.451,252.344 354.537,252.344 355.363 M207.118 361.002 C 206.091 361.413,204.158 361.569,202.821 361.350 C 201.484 361.131,197.754 361.253,194.531 361.620 C 191.309 361.987,189.920 362.336,191.445 362.394 C 192.971 362.452,194.618 362.899,195.106 363.387 C 195.768 364.049,196.317 363.950,197.271 362.997 C 198.758 361.510,200.258 361.384,202.456 362.560 C 203.632 363.190,204.756 363.111,206.913 362.248 C 208.499 361.613,211.132 361.094,212.763 361.094 C 214.395 361.094,215.940 360.883,216.198 360.625 C 216.959 359.864,209.152 360.188,207.118 361.002 M248.962 363.086 C 251.335 374.754,249.600 378.492,240.727 380.832 L 236.916 381.838 236.036 376.511 C 234.788 368.956,234.858 368.037,236.647 368.505 C 238.789 369.065,241.550 366.081,240.983 363.819 C 240.540 362.053,241.316 361.650,247.816 360.273 C 248.119 360.209,248.635 361.475,248.962 363.086 M225.000 361.504 C 224.355 361.748,223.547 362.424,223.203 363.005 C 222.178 364.741,220.930 364.266,221.875 362.500 C 222.347 361.618,223.465 360.964,224.442 360.999 C 225.607 361.041,225.789 361.206,225.000 361.504 M217.338 367.039 C 217.154 368.308,217.613 368.811,219.291 369.180 C 220.497 369.445,221.855 369.771,222.307 369.904 C 223.038 370.118,222.291 384.219,221.508 385.003 C 218.592 387.918,172.582 387.465,164.633 384.443 L 162.634 383.683 163.838 378.365 C 164.501 375.440,165.662 371.465,166.419 369.531 L 167.796 366.016 172.765 366.406 C 180.595 367.022,207.795 366.583,212.109 365.772 C 217.033 364.846,217.634 364.992,217.338 367.039 M230.779 375.363 C 232.070 384.198,232.030 384.375,228.769 384.375 L 226.380 384.375 226.889 379.102 C 227.451 373.277,229.025 365.572,229.401 366.797 C 229.533 367.227,230.153 371.081,230.779 375.363 " stroke="none" fill="#000000" fill-rule="evenodd"></path></g></svg>